<?xml version="1.0" encoding="UTF-8"?>
<svg xmlns="http://www.w3.org/2000/svg" xmlns:xlink="http://www.w3.org/1999/xlink" version="1.1" width="512" height="512" x="0" y="0" viewBox="0 0 512 512" style="enable-background:new 0 0 512 512" xml:space="preserve">
  <g>
    <path d="M270.846 392.066V499.5a5 5 0 0 1-5 5h-19.692a5 5 0 0 1-5-5V391.848M227.671 392.066l-47.94 109.44a5 5 0 0 1-4.58 2.994h-20.72c-3.607 0-6.027-3.703-4.58-7.006l46.277-105.646M284.234 391.848l48.035 109.658a5 5 0 0 0 4.58 2.994h20.72c3.607 0 6.027-3.703 4.58-7.006l-46.669-106.54M129.92 37.19h335.7c2.77 0 5 2.24 5 5v20.6c0 2.76-2.23 5-5 5H46.38c-2.77 0-5-2.24-5-5v-20.6c0-2.76 2.23-5 5-5h48.54M61.3 249.79V70.16M61.3 326.82v-42.03M450.7 327.44V155.39M450.7 120.39v-49.9M428.62 360.17h37c2.77 0 5-2.24 5-5v-20.6c0-2.76-2.23-5-5-5H46.38c-2.77 0-5 2.24-5 5v20.6c0 2.76 2.23 5 5 5h347.24M208.77 33.991V12.5a5 5 0 0 1 5-5h84.46a5 5 0 0 1 5 5v21.656M359.434 362.284v22.574a5 5 0 0 1-5 5H157.566a5 5 0 0 1-5-5v-22.959M121.398 109.826l34.053 34.053M121.398 143.879l34.053-34.053M247.641 252.153l34.053 34.053M247.641 286.206l34.053-34.053" style="stroke-width:15;stroke-linecap:round;stroke-linejoin:round;stroke-miterlimit:10;" fill="none" stroke="#93192a" stroke-width="15" stroke-linecap="round" stroke-linejoin="round" stroke-miterlimit="10" data-original="#000000" opacity="1"/>
    <circle cx="138.424" cy="269.18" r="20.553" style="stroke-width:15;stroke-linecap:round;stroke-linejoin:round;stroke-miterlimit:10;" fill="none" stroke="#93192a" stroke-width="15" stroke-linecap="round" stroke-linejoin="round" stroke-miterlimit="10" data-original="#000000" opacity="1"/>
    <circle cx="215.049" cy="177.087" r="20.553" style="stroke-width:15;stroke-linecap:round;stroke-linejoin:round;stroke-miterlimit:10;" fill="none" stroke="#93192a" stroke-width="15" stroke-linecap="round" stroke-linejoin="round" stroke-miterlimit="10" data-original="#000000" opacity="1"/>
    <circle cx="373.071" cy="269.18" r="20.553" style="stroke-width:15;stroke-linecap:round;stroke-linejoin:round;stroke-miterlimit:10;" fill="none" stroke="#93192a" stroke-width="15" stroke-linecap="round" stroke-linejoin="round" stroke-miterlimit="10" data-original="#000000" opacity="1"/>
    <circle cx="373.071" cy="126.852" r="20.553" style="stroke-width:15;stroke-linecap:round;stroke-linejoin:round;stroke-miterlimit:10;" fill="none" stroke="#93192a" stroke-width="15" stroke-linecap="round" stroke-linejoin="round" stroke-miterlimit="10" data-original="#000000" opacity="1"/>
    <path d="M138.424 224.725h0c-1.408-17.972 9.949-34.48 27.237-39.589l2.384-.705M248.303 144.798l.815-1.269c15.061-23.44 44.448-33.175 70.524-23.364h0M345.285 164.429h0c-15.026 19.317-15.026 46.368 0 65.685h0" style="stroke-width:15;stroke-linecap:round;stroke-linejoin:round;stroke-miterlimit:10;" fill="none" stroke="#93192a" stroke-width="15" stroke-linecap="round" stroke-linejoin="round" stroke-miterlimit="10" data-original="#000000" opacity="1"/>
  </g>
</svg>
