<?xml version="1.0" encoding="UTF-8"?>
<svg xmlns="http://www.w3.org/2000/svg" xmlns:xlink="http://www.w3.org/1999/xlink" version="1.1" width="512" height="512" x="0" y="0" viewBox="0 0 682.667 682.667" style="enable-background:new 0 0 512 512" xml:space="preserve">
  <g>
    <defs>
      <clipPath id="a">
        <path d="M0 512h512V0H0Z" fill="#93192a" opacity="1" data-original="#000000"/>
      </clipPath>
    </defs>
    <g clip-path="url(#a)" transform="matrix(1.33333 0 0 -1.33333 0 682.667)">
      <path d="M0 0v-20c0-22.092-17.909-40-40-40h-188.5c-11.046 0-20 8.954-20 20v29" style="stroke-width:15;stroke-linecap:round;stroke-linejoin:round;stroke-miterlimit:10;stroke-dasharray:none;stroke-opacity:1" transform="translate(504.5 115.5)" fill="none" stroke="#93192a" stroke-width="15" stroke-linecap="round" stroke-linejoin="round" stroke-miterlimit="10" stroke-dasharray="none" stroke-opacity="" data-original="#000000" opacity="1"/>
      <path d="M0 0h13.5c8.284 0 15-6.716 15-15v-246" style="stroke-width:15;stroke-linecap:round;stroke-linejoin:round;stroke-miterlimit:10;stroke-dasharray:none;stroke-opacity:1" transform="translate(476 411.5)" fill="none" stroke="#93192a" stroke-width="15" stroke-linecap="round" stroke-linejoin="round" stroke-miterlimit="10" stroke-dasharray="none" stroke-opacity="" data-original="#000000" opacity="1"/>
      <path d="M0 0h-13.5c-8.284 0-15-6.716-15-15v-301c0-22.091 17.909-40 40-40H200c11.046 0 20 8.954 20 20v27.5" style="stroke-width:15;stroke-linecap:round;stroke-linejoin:round;stroke-miterlimit:10;stroke-dasharray:none;stroke-opacity:1" transform="translate(36 411.5)" fill="none" stroke="#93192a" stroke-width="15" stroke-linecap="round" stroke-linejoin="round" stroke-miterlimit="10" stroke-dasharray="none" stroke-opacity="" data-original="#000000" opacity="1"/>
      <path d="M0 0h68.5c8.284 0 15-6.716 15-15v-326.072c0-8.284-6.716-15-15-15H-120c-8.284 0-15 6.716-15 15V-15c0 8.284 6.716 15 15 15h29.25" style="stroke-width:15;stroke-linecap:round;stroke-linejoin:round;stroke-miterlimit:10;stroke-dasharray:none;stroke-opacity:1" transform="translate(172.5 441.5)" fill="none" stroke="#93192a" stroke-width="15" stroke-linecap="round" stroke-linejoin="round" stroke-miterlimit="10" stroke-dasharray="none" stroke-opacity="" data-original="#000000" opacity="1"/>
      <path d="M0 0c0 8.284 6.716 15 15 15h188.5c8.284 0 15-6.716 15-15v-326.072c0-8.284-6.716-15-15-15H15c-8.284 0-15 6.716-15 15" style="stroke-width:15;stroke-linecap:round;stroke-linejoin:round;stroke-miterlimit:10;stroke-dasharray:none;stroke-opacity:1" transform="translate(256 426.5)" fill="none" stroke="#93192a" stroke-width="15" stroke-linecap="round" stroke-linejoin="round" stroke-miterlimit="10" stroke-dasharray="none" stroke-opacity="" data-original="#000000" opacity="1"/>
      <path d="m0 0-15.925 13.898a5 5 0 0 1-6.575 0L-38.425 0c-3.234-2.823-8.287-.526-8.287 3.767v78a5 5 0 0 0 5 5h45a5 5 0 0 0 5-5v-78C8.288-.526 3.234-2.823 0 0Z" style="stroke-width:15;stroke-linecap:round;stroke-linejoin:round;stroke-miterlimit:10;stroke-dasharray:none;stroke-opacity:1" transform="translate(129.212 369.733)" fill="none" stroke="#93192a" stroke-width="15" stroke-linecap="round" stroke-linejoin="round" stroke-miterlimit="10" stroke-dasharray="none" stroke-opacity="" data-original="#000000" opacity="1"/>
      <path d="m0 0 11.314 11.314c5.858 5.858 5.858 15.355 0 21.213v0c-5.858 5.858-15.356 5.858-21.214 0l-11.313-11.314c-3.905-3.905-10.237-3.905-14.142 0l-12.021 12.021c-5.858 5.858-15.356 5.858-21.213 0v0c-5.858-5.858-5.858-15.355 0-21.213L-56.569 0c3.906-3.905 3.906-10.237 0-14.142l-12.02-12.021c-5.858-5.858-5.858-15.355 0-21.213v0c5.857-5.858 15.355-5.858 21.213 0l12.021 12.021c3.905 3.905 10.237 3.905 14.142 0L-9.9-46.669c5.858-5.858 15.356-5.858 21.214 0v0c5.858 5.858 5.858 15.355 0 21.213L0-14.142C-3.905-10.237-3.905-3.905 0 0Z" style="stroke-width:15;stroke-linecap:round;stroke-linejoin:round;stroke-miterlimit:10;stroke-dasharray:none;stroke-opacity:1" transform="translate(395.638 303.071)" fill="none" stroke="#93192a" stroke-width="15" stroke-linecap="round" stroke-linejoin="round" stroke-miterlimit="10" stroke-dasharray="none" stroke-opacity="" data-original="#000000" opacity="1"/>
      <path d="m0 0 16.263-16.263a5 5 0 0 1 7.072 0l45.961 45.961c5.858 5.858 15.356 5.858 21.214 0v0c5.858-5.857 5.858-15.355 0-21.213L30.406-51.619c-5.858-5.858-15.356-5.858-21.214 0l-30.405 30.406c-5.858 5.858-5.858 15.355 0 21.213v0C-15.355 5.858-5.858 5.858 0 0Z" style="stroke-width:15;stroke-linecap:round;stroke-linejoin:round;stroke-miterlimit:10;stroke-dasharray:none;stroke-opacity:1" transform="translate(112.352 306.96)" fill="none" stroke="#93192a" stroke-width="15" stroke-linecap="round" stroke-linejoin="round" stroke-miterlimit="10" stroke-dasharray="none" stroke-opacity="" data-original="#000000" opacity="1"/>
      <path d="M0 0h23" style="stroke-width:15;stroke-linecap:round;stroke-linejoin:round;stroke-miterlimit:10;stroke-dasharray:none;stroke-opacity:1" transform="translate(245 399.5)" fill="none" stroke="#93192a" stroke-width="15" stroke-linecap="round" stroke-linejoin="round" stroke-miterlimit="10" stroke-dasharray="none" stroke-opacity="" data-original="#000000" opacity="1"/>
      <path d="M0 0h23" style="stroke-width:15;stroke-linecap:round;stroke-linejoin:round;stroke-miterlimit:10;stroke-dasharray:none;stroke-opacity:1" transform="translate(244 345.5)" fill="none" stroke="#93192a" stroke-width="15" stroke-linecap="round" stroke-linejoin="round" stroke-miterlimit="10" stroke-dasharray="none" stroke-opacity="" data-original="#000000" opacity="1"/>
      <path d="M0 0h23" style="stroke-width:15;stroke-linecap:round;stroke-linejoin:round;stroke-miterlimit:10;stroke-dasharray:none;stroke-opacity:1" transform="translate(244 290.5)" fill="none" stroke="#93192a" stroke-width="15" stroke-linecap="round" stroke-linejoin="round" stroke-miterlimit="10" stroke-dasharray="none" stroke-opacity="" data-original="#000000" opacity="1"/>
      <path d="M0 0h23" style="stroke-width:15;stroke-linecap:round;stroke-linejoin:round;stroke-miterlimit:10;stroke-dasharray:none;stroke-opacity:1" transform="translate(244 235.5)" fill="none" stroke="#93192a" stroke-width="15" stroke-linecap="round" stroke-linejoin="round" stroke-miterlimit="10" stroke-dasharray="none" stroke-opacity="" data-original="#000000" opacity="1"/>
      <path d="M0 0h23" style="stroke-width:15;stroke-linecap:round;stroke-linejoin:round;stroke-miterlimit:10;stroke-dasharray:none;stroke-opacity:1" transform="translate(244 180.5)" fill="none" stroke="#93192a" stroke-width="15" stroke-linecap="round" stroke-linejoin="round" stroke-miterlimit="10" stroke-dasharray="none" stroke-opacity="" data-original="#000000" opacity="1"/>
      <path d="M0 0h23" style="stroke-width:15;stroke-linecap:round;stroke-linejoin:round;stroke-miterlimit:10;stroke-dasharray:none;stroke-opacity:1" transform="translate(244 125.5)" fill="none" stroke="#93192a" stroke-width="15" stroke-linecap="round" stroke-linejoin="round" stroke-miterlimit="10" stroke-dasharray="none" stroke-opacity="" data-original="#000000" opacity="1"/>
      <path d="M0 0h100" style="stroke-width:15;stroke-linecap:round;stroke-linejoin:round;stroke-miterlimit:10;stroke-dasharray:none;stroke-opacity:1" transform="translate(97 210.5)" fill="none" stroke="#93192a" stroke-width="15" stroke-linecap="round" stroke-linejoin="round" stroke-miterlimit="10" stroke-dasharray="none" stroke-opacity="" data-original="#000000" opacity="1"/>
      <path d="M0 0h60" style="stroke-width:15;stroke-linecap:round;stroke-linejoin:round;stroke-miterlimit:10;stroke-dasharray:none;stroke-opacity:1" transform="translate(117 180.5)" fill="none" stroke="#93192a" stroke-width="15" stroke-linecap="round" stroke-linejoin="round" stroke-miterlimit="10" stroke-dasharray="none" stroke-opacity="" data-original="#000000" opacity="1"/>
      <path d="M0 0h100" style="stroke-width:15;stroke-linecap:round;stroke-linejoin:round;stroke-miterlimit:10;stroke-dasharray:none;stroke-opacity:1" transform="translate(317 210.5)" fill="none" stroke="#93192a" stroke-width="15" stroke-linecap="round" stroke-linejoin="round" stroke-miterlimit="10" stroke-dasharray="none" stroke-opacity="" data-original="#000000" opacity="1"/>
      <path d="M0 0h60" style="stroke-width:15;stroke-linecap:round;stroke-linejoin:round;stroke-miterlimit:10;stroke-dasharray:none;stroke-opacity:1" transform="translate(337 180.5)" fill="none" stroke="#93192a" stroke-width="15" stroke-linecap="round" stroke-linejoin="round" stroke-miterlimit="10" stroke-dasharray="none" stroke-opacity="" data-original="#000000" opacity="1"/>
    </g>
  </g>
</svg>
