<svg xmlns="http://www.w3.org/2000/svg" fill="none" viewBox="115.92 97.74 268.21 318.94">
<path d="M250.01 97.74C250.27 97.74 250.437 97.7467 250.51 97.76C270.843 102.027 291.09 107.527 311.25 114.26C336.41 122.653 360.567 133.42 383.72 146.56C383.841 146.63 383.942 146.729 384.012 146.849C384.082 146.968 384.12 147.103 384.12 147.24C384.133 148.773 384.127 191.027 384.1 274C384.1 280.5 383.06 288.017 380.98 296.55C375.98 317.09 364.4 335.31 349.69 350.71C337.09 363.903 323.26 375.5 308.2 385.5C289.77 397.74 270.86 408.1 250.26 416.65C250.213 416.67 250.14 416.68 250.04 416.68C249.947 416.68 249.877 416.67 249.83 416.65C229.22 408.1 210.31 397.75 191.88 385.51C176.82 375.517 162.987 363.923 150.38 350.73C135.67 335.33 124.09 317.11 119.08 296.57C117 288.043 115.96 280.53 115.96 274.03C115.92 191.057 115.907 148.803 115.92 147.27C115.92 147.133 115.958 146.998 116.028 146.879C116.098 146.759 116.199 146.66 116.32 146.59C139.467 133.443 163.62 122.67 188.78 114.27C208.94 107.537 229.183 102.033 249.51 97.76C249.59 97.7467 249.757 97.74 250.01 97.74ZM250.06 405.59C251.1 405.59 253.06 404.65 254.46 404.01C278.16 393.17 299.25 380.667 317.73 366.5C332.757 354.973 345.53 342 356.05 327.58C362.663 318.507 367.383 308.9 370.21 298.76C372.87 289.207 374.25 280.7 374.35 273.24C374.403 269.193 374.41 229.07 374.37 152.87C374.37 152.771 374.343 152.674 374.292 152.589C374.241 152.505 374.168 152.436 374.08 152.39C355.52 142.53 337.233 134.35 319.22 127.85C305.307 122.83 293.64 119.1 284.22 116.66C281.093 115.847 279.05 115.237 278.09 114.83C277.758 114.691 277.408 114.6 277.05 114.56C274.73 114.3 272.43 113.733 270.15 112.86C269.791 112.721 269.415 112.626 269.03 112.58C266.07 112.213 263.463 111.643 261.21 110.87C260.898 110.764 260.576 110.693 260.25 110.66C256.79 110.247 253.54 109.603 250.5 108.73C250.46 108.717 250.3 108.71 250.02 108.71C249.747 108.71 249.59 108.717 249.55 108.73C246.51 109.603 243.26 110.247 239.8 110.66C239.474 110.693 239.152 110.764 238.84 110.87C236.587 111.643 233.98 112.213 231.02 112.58C230.635 112.626 230.259 112.721 229.9 112.86C227.62 113.74 225.32 114.31 223 114.57C222.642 114.61 222.292 114.701 221.96 114.84C221 115.247 218.957 115.857 215.83 116.67C206.41 119.11 194.743 122.843 180.83 127.87C162.817 134.37 144.53 142.553 125.97 152.42C125.882 152.466 125.809 152.535 125.758 152.619C125.707 152.704 125.68 152.801 125.68 152.9C125.66 229.1 125.677 269.223 125.73 273.27C125.83 280.73 127.213 289.237 129.88 298.79C132.707 308.93 137.427 318.533 144.04 327.6C154.567 342.02 167.343 354.993 182.37 366.52C200.857 380.68 221.95 393.177 245.65 404.01C247.05 404.65 249.02 405.59 250.06 405.59Z" fill="#0F1C2B"/>
<path d="M250.06 125.04C250.087 125.04 250.147 125.047 250.24 125.06C263.853 127.4 278.193 130.88 293.26 135.5C314.433 141.987 334.933 150.227 354.76 160.22C357.02 161.36 358.533 162.177 359.3 162.67C359.435 162.756 359.545 162.875 359.622 163.017C359.699 163.158 359.74 163.318 359.74 163.48V208.43C359.741 208.504 359.717 208.575 359.672 208.634C359.627 208.692 359.564 208.734 359.492 208.752C359.421 208.77 359.346 208.765 359.278 208.735C359.211 208.706 359.155 208.655 359.12 208.59C358.28 207.123 356.953 205.463 355.14 203.61C350.333 198.697 344.553 194.953 337.8 192.38C330.787 189.707 324.563 187.777 319.13 186.59C310.73 184.763 303.93 183.567 298.73 183C292.79 182.353 287.063 181.773 281.55 181.26C274.957 180.653 264.45 180.347 250.03 180.34C235.617 180.333 225.11 180.63 218.51 181.23C213.003 181.737 207.28 182.31 201.34 182.95C196.133 183.517 189.33 184.707 180.93 186.52C175.497 187.707 169.273 189.63 162.26 192.29C155.5 194.857 149.717 198.597 144.91 203.51C143.09 205.363 141.76 207.02 140.92 208.48C140.885 208.545 140.829 208.596 140.762 208.625C140.694 208.655 140.619 208.66 140.548 208.642C140.476 208.624 140.413 208.582 140.368 208.524C140.323 208.465 140.299 208.394 140.3 208.32L140.34 163.37C140.341 163.207 140.383 163.047 140.462 162.905C140.541 162.763 140.653 162.645 140.79 162.56C141.557 162.073 143.07 161.26 145.33 160.12C165.163 150.147 185.67 141.927 206.85 135.46C221.923 130.853 236.267 127.387 249.88 125.06C249.973 125.047 250.033 125.04 250.06 125.04ZM247.16 174.01V132.35C247.161 132.229 247.134 132.11 247.084 132C247.033 131.891 246.958 131.794 246.866 131.717C246.773 131.639 246.664 131.583 246.548 131.553C246.431 131.522 246.309 131.518 246.19 131.54C232.63 134.087 218.807 137.67 204.72 142.29C201.487 143.35 199.457 143.96 198.63 144.12C198.547 144.135 198.469 144.173 198.406 144.229C198.344 144.286 198.298 144.36 198.275 144.441C198.252 144.522 198.253 144.609 198.277 144.69C198.3 144.771 198.347 144.844 198.41 144.9L230.36 174.56C230.475 174.669 230.629 174.73 230.79 174.73H246.44C246.631 174.73 246.814 174.654 246.949 174.519C247.084 174.384 247.16 174.201 247.16 174.01ZM252.92 173.9C252.92 174.091 252.996 174.274 253.131 174.409C253.266 174.544 253.449 174.62 253.64 174.62L269.25 174.61C269.411 174.61 269.565 174.549 269.68 174.44L301.53 144.84C301.593 144.784 301.64 144.711 301.663 144.63C301.687 144.549 301.688 144.462 301.665 144.381C301.642 144.3 301.596 144.226 301.534 144.169C301.471 144.113 301.393 144.075 301.31 144.06C300.483 143.9 298.46 143.293 295.24 142.24C281.187 137.64 267.397 134.073 253.87 131.54C253.751 131.518 253.629 131.522 253.512 131.553C253.396 131.583 253.287 131.639 253.194 131.717C253.102 131.794 253.027 131.891 252.976 132C252.926 132.11 252.899 132.229 252.9 132.35L252.92 173.9ZM222.2 175.64C222.255 175.633 222.307 175.611 222.351 175.576C222.394 175.542 222.427 175.496 222.445 175.444C222.463 175.393 222.465 175.337 222.452 175.285C222.439 175.233 222.41 175.186 222.37 175.15L191.82 146.8C191.694 146.683 191.538 146.604 191.37 146.572C191.201 146.54 191.028 146.557 190.87 146.62L170.22 154.74C170.034 154.814 169.874 154.942 169.762 155.108C169.65 155.274 169.59 155.47 169.59 155.67V182.84C169.59 182.894 169.602 182.947 169.626 182.996C169.649 183.044 169.684 183.087 169.726 183.121C169.768 183.154 169.817 183.178 169.87 183.19C169.923 183.202 169.977 183.202 170.03 183.19C174.783 182.103 180.343 180.917 186.71 179.63C189.477 179.077 191.353 178.757 192.34 178.67C197.31 178.26 201.54 177.09 206.46 176.84C209.713 176.673 214.96 176.273 222.2 175.64ZM277.61 175.76C284.87 176.38 290.127 176.773 293.38 176.94C298.31 177.18 302.55 178.35 307.53 178.75C308.517 178.837 310.397 179.153 313.17 179.7C319.55 180.98 325.123 182.16 329.89 183.24C329.943 183.252 329.997 183.252 330.05 183.24C330.103 183.228 330.152 183.204 330.194 183.171C330.236 183.137 330.271 183.094 330.294 183.046C330.318 182.997 330.33 182.944 330.33 182.89L330.28 155.67C330.28 155.47 330.22 155.274 330.108 155.108C329.996 154.942 329.836 154.814 329.65 154.74L308.95 146.64C308.792 146.577 308.619 146.56 308.45 146.592C308.282 146.624 308.126 146.703 308 146.82L277.44 175.27C277.4 175.306 277.371 175.353 277.358 175.405C277.345 175.457 277.347 175.513 277.365 175.564C277.383 175.616 277.416 175.662 277.459 175.697C277.503 175.731 277.555 175.753 277.61 175.76ZM335.89 157.92V185.1C335.891 185.254 335.939 185.404 336.029 185.528C336.119 185.652 336.245 185.744 336.39 185.79C342.423 187.823 348.033 190.66 353.22 194.3C353.269 194.334 353.327 194.354 353.386 194.357C353.446 194.36 353.506 194.347 353.559 194.318C353.613 194.289 353.658 194.247 353.689 194.194C353.721 194.142 353.739 194.081 353.74 194.02V167.12C353.74 166.775 353.644 166.436 353.462 166.143C353.28 165.85 353.019 165.613 352.71 165.46L336.64 157.45C336.56 157.411 336.472 157.393 336.384 157.397C336.295 157.402 336.209 157.429 336.134 157.476C336.059 157.523 335.997 157.588 335.954 157.666C335.911 157.744 335.889 157.831 335.89 157.92ZM163.96 158.04C163.961 157.95 163.939 157.861 163.896 157.782C163.852 157.703 163.79 157.637 163.714 157.589C163.639 157.542 163.553 157.515 163.464 157.512C163.376 157.508 163.288 157.528 163.21 157.57L147.33 165.53C147.024 165.683 146.768 165.919 146.589 166.211C146.411 166.502 146.317 166.838 146.32 167.18L146.38 193.79C146.38 193.85 146.397 193.91 146.428 193.961C146.459 194.013 146.504 194.055 146.558 194.083C146.612 194.111 146.672 194.124 146.732 194.119C146.793 194.115 146.851 194.095 146.9 194.06C152.02 190.453 157.563 187.637 163.53 185.61C163.674 185.563 163.799 185.471 163.887 185.347C163.975 185.223 164.022 185.073 164.02 184.92L163.96 158.04Z" fill="#0F1C2B"/>
<path d="M283.16 244.97C284.7 244.563 288.47 243.853 294.47 242.84C305.83 240.913 316.763 237.64 327.27 233.02C333.72 230.17 342.5 225.5 346.13 219.12C346.294 218.838 346.383 218.518 346.39 218.19C346.417 216.263 345.847 214.697 344.68 213.49C341.96 210.663 338.467 208.437 334.2 206.81C327.073 204.09 320.76 202.173 315.26 201.06C311.267 200.253 308.75 199.723 307.71 199.47C302 198.07 298.5 198.09 291.85 197.14C285.3 196.2 277.7 196.21 272.34 195.74C263.93 195 256.62 195.2 246.34 195.24C241.1 195.253 236.38 195.417 232.18 195.73C226.15 196.17 217.3 196.11 209.98 197.19C203.65 198.13 199.66 198.2 194.28 199.38C191.867 199.913 189.31 200.3 186.61 200.54C186.264 200.567 185.919 200.63 185.58 200.73C182.2 201.75 179.06 202.01 176.18 202.93C171.547 204.417 167.823 205.77 165.01 206.99C160.73 208.86 153.52 212.27 153.58 217.44C153.587 217.783 153.669 218.121 153.82 218.43C154.867 220.523 156.37 222.353 158.33 223.92C169.22 232.62 182.44 237.74 196 240.95C203.14 242.637 210.227 244.04 217.26 245.16C217.339 245.171 217.414 245.205 217.475 245.257C217.536 245.309 217.58 245.378 217.603 245.455C217.626 245.531 217.627 245.613 217.605 245.69C217.583 245.768 217.54 245.837 217.48 245.89L212.5 250.46C212.366 250.582 212.206 250.672 212.033 250.724C211.86 250.776 211.678 250.788 211.5 250.76C204.66 249.66 198.327 248.41 192.5 247.01C181.5 244.363 171.2 240.253 161.6 234.68C155.893 231.373 151.433 227.28 148.22 222.4C145.967 218.98 145.747 215.287 147.56 211.32C147.706 210.996 147.902 210.698 148.14 210.44C154.4 203.55 163.78 199.51 172.77 197.08C180.737 194.92 187.323 193.493 192.53 192.8C197.403 192.153 200.29 191.737 201.19 191.55C203.703 191.017 206.593 190.637 209.86 190.41C216.24 189.97 222.95 189 230.04 188.74C243.827 188.227 257.053 188.19 269.72 188.63C273.673 188.77 277.353 189.04 280.76 189.44C288.17 190.31 293.52 190.35 300.02 191.6C300.5 191.693 303.237 192.09 308.23 192.79C312.09 193.33 317.65 194.523 324.91 196.37C333.09 198.45 351.85 204.7 353.4 214.7C354.97 224.83 342.15 233.29 334.54 237.05C328.38 240.097 322.45 242.49 316.75 244.23C309.843 246.35 304.567 247.727 300.92 248.36C296.313 249.153 292.3 249.907 288.88 250.62C288.843 250.627 288.804 250.625 288.768 250.614C288.732 250.604 288.698 250.585 288.67 250.56L283.06 245.35C283.029 245.323 283.007 245.288 282.995 245.249C282.983 245.21 282.983 245.169 282.993 245.129C283.003 245.09 283.024 245.054 283.054 245.026C283.083 244.998 283.12 244.978 283.16 244.97Z" fill="#0F1C2B"/>
<path d="M249.67 224.95C258.71 224.96 267.65 225.38 276.25 225.72C282.86 225.98 290.5 227.3 296.2 227.67C301.26 228 307.23 229.63 313.13 230.02C313.246 230.031 313.355 230.081 313.44 230.162C313.525 230.243 313.579 230.35 313.594 230.465C313.609 230.58 313.585 230.696 313.524 230.793C313.463 230.891 313.37 230.964 313.26 231L303.04 234.33C302.617 234.467 302.16 234.47 301.73 234.34C301.59 234.293 296.543 233.683 286.59 232.51C274.91 231.13 264.67 231.05 251.75 230.54C251.597 230.533 250.9 230.53 249.66 230.53C248.42 230.53 247.723 230.533 247.57 230.54C234.65 231.01 224.41 231.06 212.73 232.4C202.77 233.547 197.72 234.143 197.58 234.19C197.149 234.317 196.692 234.31 196.27 234.17L186.06 230.81C185.95 230.774 185.857 230.701 185.796 230.603C185.735 230.506 185.71 230.39 185.726 230.275C185.741 230.16 185.795 230.053 185.88 229.972C185.964 229.891 186.074 229.841 186.19 229.83C192.1 229.46 198.07 227.85 203.13 227.53C208.83 227.18 216.48 225.88 223.09 225.64C231.69 225.32 240.63 224.93 249.67 224.95Z" fill="#0F1C2B"/>
<path d="M354.29 229.59C354.332 229.543 354.387 229.511 354.449 229.496C354.51 229.482 354.574 229.486 354.632 229.509C354.691 229.532 354.741 229.572 354.776 229.624C354.812 229.676 354.83 229.737 354.83 229.8C354.817 240.513 354.817 249.08 354.83 255.5C354.85 260.27 351.42 263.35 347.46 265.95C342.847 268.97 337.763 271.593 332.21 273.82C332.097 273.864 331.977 273.883 331.858 273.877C331.738 273.87 331.623 273.837 331.52 273.78L298.33 255.47C298.258 255.433 298.199 255.373 298.162 255.301C298.125 255.228 298.112 255.146 298.124 255.066C298.136 254.985 298.173 254.91 298.23 254.852C298.286 254.794 298.36 254.755 298.44 254.74C309.233 252.593 319.04 249.96 327.86 246.84C337.45 243.44 347.24 237.69 354.29 229.59Z" fill="#0F1C2B"/>
<path d="M145.69 230.1C149.743 233.967 152.293 236.243 153.34 236.93C167.81 246.46 184.91 251.55 202.01 254.66C202.079 254.671 202.143 254.703 202.192 254.752C202.242 254.801 202.274 254.865 202.286 254.934C202.297 255.002 202.286 255.073 202.254 255.135C202.223 255.198 202.172 255.248 202.11 255.28L169.56 273.18C169.45 273.24 169.329 273.276 169.205 273.286C169.081 273.297 168.956 273.281 168.84 273.24C163.213 271.327 157.857 268.83 152.77 265.75C150.083 264.117 147.92 262.153 146.28 259.86C145.571 258.858 145.19 257.66 145.19 256.43V230.31C145.189 230.253 145.205 230.197 145.236 230.15C145.267 230.102 145.312 230.065 145.365 230.042C145.418 230.02 145.478 230.013 145.535 230.024C145.593 230.034 145.647 230.061 145.69 230.1Z" fill="#0F1C2B"/>
<path d="M273.62 288.49C270.24 291.217 267.27 293.017 264.71 293.89C262.797 294.543 260.623 294.517 258.19 293.81C256.94 293.44 256.48 292.37 255.48 291.84C255.306 291.745 255.111 291.696 254.914 291.698C254.716 291.7 254.522 291.752 254.35 291.85C250.93 293.783 247.947 294.863 245.4 295.09C240.58 295.52 236.37 292.04 232.89 288.32C232.783 288.206 232.639 288.135 232.484 288.118C232.33 288.102 232.176 288.141 232.05 288.23L179.88 324.76C179.689 324.893 179.474 324.987 179.247 325.036C179.019 325.085 178.785 325.087 178.557 325.043C178.329 324.999 178.113 324.91 177.921 324.781C177.729 324.651 177.565 324.484 177.44 324.29L155.64 290.81C155.486 290.574 155.43 290.287 155.484 290.011C155.538 289.734 155.698 289.49 155.93 289.33C159.543 286.85 163 284.68 166.3 282.82C183.693 273.033 202.737 262.323 223.43 250.69C224.823 249.91 225.48 248.81 225.4 247.39C225.32 245.943 225.283 245.193 225.29 245.14C225.603 243.313 226.427 241.807 227.76 240.62C233.94 235.127 240.927 233.607 248.72 236.06C249.513 236.313 251.78 237.367 255.52 239.22C255.677 239.297 255.854 239.326 256.028 239.303C256.202 239.28 256.366 239.206 256.5 239.09L258.04 237.74C258.467 237.364 258.987 237.108 259.546 236.999C260.105 236.89 260.683 236.932 261.22 237.12C268.5 239.65 276.93 244.3 280.02 251.66C280.37 252.49 280.989 253.183 281.78 253.63C281.9 253.697 296.67 261.96 326.09 278.42C331.523 281.467 337.56 285.133 344.2 289.42C344.411 289.556 344.559 289.77 344.614 290.013C344.668 290.257 344.623 290.511 344.49 290.72L322.92 324.85C322.811 325.022 322.638 325.144 322.44 325.189C322.241 325.234 322.032 325.198 321.86 325.09C320.613 324.277 319.163 323.253 317.51 322.02C305.05 312.7 290.713 301.523 274.5 288.49C274.375 288.391 274.22 288.337 274.06 288.337C273.9 288.337 273.745 288.391 273.62 288.49ZM253.25 263.97L254.44 247.15C254.452 246.989 254.42 246.828 254.348 246.682C254.276 246.536 254.166 246.411 254.03 246.32C251.643 244.713 248.523 243.307 244.67 242.1C242.75 241.5 241.127 241.433 239.8 241.9C236.48 243.06 231.39 244.51 233.41 249.13C233.436 249.189 233.478 249.241 233.53 249.28L252.62 264.25C252.676 264.294 252.742 264.322 252.813 264.33C252.883 264.339 252.955 264.328 253.019 264.3C253.084 264.271 253.14 264.225 253.18 264.167C253.221 264.109 253.245 264.041 253.25 263.97ZM261.2 245.07C260.353 258.777 260.167 272.477 260.64 286.17C260.647 286.343 260.694 286.513 260.777 286.665C260.861 286.817 260.978 286.948 261.121 287.047C261.263 287.145 261.427 287.21 261.598 287.235C261.77 287.26 261.945 287.244 262.11 287.19C269.01 284.917 273.027 280.747 274.16 274.68C275.05 269.94 275.03 261.85 274.34 256.51C273.61 250.84 266.55 246.62 261.67 244.77C261.619 244.751 261.565 244.745 261.511 244.75C261.458 244.756 261.406 244.774 261.361 244.803C261.315 244.832 261.277 244.872 261.249 244.918C261.221 244.964 261.204 245.016 261.2 245.07ZM180.1 315.87C180.124 315.908 180.156 315.94 180.193 315.965C180.23 315.99 180.272 316.007 180.316 316.016C180.36 316.024 180.405 316.024 180.449 316.014C180.492 316.004 180.534 315.986 180.57 315.96L247.2 269.31C247.242 269.28 247.276 269.241 247.3 269.195C247.324 269.15 247.337 269.099 247.338 269.048C247.339 268.996 247.328 268.945 247.306 268.899C247.284 268.852 247.251 268.811 247.21 268.78L229.79 255.11C229.739 255.071 229.678 255.047 229.614 255.041C229.551 255.036 229.486 255.049 229.43 255.08L164.73 291.62C164.691 291.642 164.657 291.671 164.63 291.706C164.603 291.741 164.583 291.782 164.572 291.824C164.561 291.867 164.559 291.912 164.565 291.956C164.572 292 164.587 292.042 164.61 292.08L180.1 315.87ZM281.91 262.12C282.01 267.687 281.397 273.643 280.07 279.99C280.044 280.123 279.996 280.251 279.93 280.37L278.69 282.55C278.614 282.683 278.588 282.839 278.618 282.99C278.647 283.14 278.73 283.275 278.85 283.37L320.17 315.77C320.211 315.803 320.259 315.827 320.311 315.84C320.362 315.853 320.416 315.855 320.468 315.846C320.52 315.836 320.569 315.815 320.613 315.785C320.656 315.755 320.693 315.716 320.72 315.67L335.32 292.57C335.383 292.471 335.426 292.361 335.445 292.245C335.463 292.129 335.458 292.01 335.429 291.896C335.4 291.782 335.348 291.675 335.276 291.581C335.204 291.487 335.113 291.408 335.01 291.35L282.56 261.73C282.493 261.693 282.417 261.675 282.341 261.677C282.264 261.678 282.189 261.7 282.124 261.739C282.058 261.779 282.004 261.835 281.966 261.901C281.929 261.968 281.909 262.043 281.91 262.12ZM253.27 274.5C253.27 274.388 253.24 274.279 253.182 274.183C253.124 274.088 253.041 274.01 252.942 273.959C252.843 273.907 252.732 273.884 252.62 273.891C252.509 273.898 252.401 273.936 252.31 274L239.36 283.08C239.223 283.175 239.108 283.298 239.023 283.441C238.937 283.583 238.882 283.743 238.863 283.908C238.843 284.073 238.858 284.241 238.908 284.4C238.957 284.559 239.04 284.705 239.15 284.83C241.383 287.357 243.757 288.45 246.27 288.11C246.903 288.023 248.937 287.02 252.37 285.1C252.643 284.945 252.87 284.721 253.028 284.45C253.186 284.18 253.27 283.873 253.27 283.56V274.5Z" fill="#0F1C2B"/>
<path d="M191.16 323.12L196.76 318.71C197.058 318.477 197.424 318.35 197.8 318.35H208.25C208.316 318.35 208.381 318.337 208.441 318.311C208.502 318.286 208.557 318.248 208.604 318.201C208.65 318.153 208.687 318.097 208.712 318.035C208.737 317.973 208.75 317.907 208.75 317.84V310.85C208.75 310.77 208.771 310.691 208.812 310.619C208.852 310.548 208.91 310.486 208.98 310.44L214.03 307.15C214.06 307.13 214.096 307.119 214.132 307.117C214.168 307.116 214.204 307.124 214.236 307.142C214.268 307.159 214.295 307.185 214.313 307.216C214.331 307.248 214.341 307.284 214.34 307.32V317.87C214.34 318 214.392 318.125 214.484 318.216C214.575 318.308 214.7 318.36 214.83 318.36H246.48C246.634 318.36 246.781 318.299 246.89 318.19C246.999 318.081 247.06 317.934 247.06 317.78V302.51C247.06 302.482 247.068 302.455 247.082 302.432C247.096 302.409 247.116 302.391 247.14 302.38L252.62 299.29C252.637 299.279 252.657 299.273 252.678 299.272C252.698 299.272 252.718 299.277 252.736 299.287C252.754 299.298 252.768 299.313 252.778 299.331C252.787 299.349 252.791 299.37 252.79 299.39V317.8C252.79 317.949 252.849 318.091 252.954 318.196C253.059 318.301 253.201 318.36 253.35 318.36H285.25C285.383 318.36 285.51 318.307 285.604 318.214C285.697 318.12 285.75 317.993 285.75 317.86V307.22C285.75 307.177 285.763 307.136 285.786 307.099C285.808 307.063 285.841 307.034 285.879 307.016C285.918 306.997 285.961 306.989 286.003 306.994C286.046 306.998 286.086 307.014 286.12 307.04L290.47 310.45C290.697 310.628 290.881 310.855 291.007 311.115C291.134 311.375 291.2 311.66 291.2 311.95V317.68C291.2 317.85 291.267 318.013 291.387 318.133C291.507 318.253 291.67 318.32 291.84 318.32C296.693 318.367 299.42 318.363 300.02 318.31C301.927 318.15 303.41 318.547 304.47 319.5C304.777 319.78 306.417 320.993 309.39 323.14C309.437 323.17 309.472 323.214 309.491 323.266C309.509 323.319 309.51 323.375 309.493 323.428C309.476 323.481 309.441 323.526 309.396 323.557C309.35 323.588 309.295 323.603 309.24 323.6H291.49C291.424 323.6 291.36 323.627 291.313 323.676C291.266 323.725 291.24 323.791 291.24 323.86V361.39C291.239 361.464 291.258 361.536 291.296 361.6C291.333 361.664 291.386 361.717 291.451 361.752C291.515 361.788 291.588 361.806 291.662 361.804C291.736 361.802 291.808 361.78 291.87 361.74C298.543 357.467 305.77 352.08 313.55 345.58C326.84 334.48 339 320.79 346.27 305.29C346.302 305.223 346.317 305.148 346.312 305.074C346.308 304.999 346.285 304.927 346.245 304.864C346.205 304.801 346.149 304.749 346.084 304.714C346.018 304.678 345.945 304.659 345.87 304.66H339.66C339.645 304.66 339.63 304.656 339.616 304.648C339.603 304.641 339.592 304.63 339.584 304.617C339.576 304.604 339.571 304.589 339.571 304.574C339.57 304.559 339.573 304.544 339.58 304.53L341.91 299.84C341.961 299.741 342.039 299.658 342.134 299.599C342.229 299.541 342.338 299.51 342.45 299.51H348.09C348.249 299.51 348.404 299.461 348.535 299.369C348.665 299.278 348.765 299.149 348.82 299C350.78 293.707 351.923 290.13 352.25 288.27C353.457 281.463 354.083 276.957 354.13 274.75C354.183 271.897 354.223 270.423 354.25 270.33C354.354 269.933 354.578 269.58 354.89 269.32C356.623 267.873 358.053 266.13 359.18 264.09C359.208 264.036 359.254 263.992 359.309 263.967C359.365 263.942 359.428 263.937 359.487 263.952C359.546 263.967 359.598 264.002 359.635 264.05C359.672 264.099 359.691 264.159 359.69 264.22C359.97 273.92 359.12 285.1 356.38 294.34C352.553 307.253 346.25 318.973 337.47 329.5C330.27 338.133 322.21 345.983 313.29 353.05C296.93 366.003 279.957 376.777 262.37 385.37C258.103 387.457 254.127 389.347 250.44 391.04C250.296 391.106 250.139 391.14 249.98 391.14C249.821 391.14 249.664 391.106 249.52 391.04C249.353 390.96 249.08 390.83 248.7 390.65C227.5 380.577 209.727 370.32 195.38 359.88C178.28 347.42 161.83 331.62 151.47 313.28C146.583 304.64 143.39 296.027 141.89 287.44C140.543 279.707 140.033 271.977 140.36 264.25C140.361 264.197 140.38 264.147 140.413 264.105C140.446 264.064 140.492 264.035 140.543 264.023C140.594 264.01 140.648 264.015 140.696 264.036C140.745 264.057 140.785 264.094 140.81 264.14C141.997 266.2 143.367 267.863 144.92 269.13C145.395 269.521 145.699 270.084 145.77 270.7C145.98 272.55 145.71 274.64 146 276.77C146.96 283.803 147.657 288.1 148.09 289.66C149.13 293.407 150.157 296.52 151.17 299C151.238 299.166 151.353 299.308 151.501 299.408C151.649 299.508 151.823 299.561 152 299.56H157.61C157.687 299.56 157.763 299.58 157.831 299.616C157.899 299.653 157.957 299.706 158 299.77L160.98 304.35C161 304.38 161.011 304.416 161.013 304.452C161.014 304.488 161.006 304.524 160.988 304.556C160.971 304.588 160.945 304.615 160.914 304.633C160.882 304.651 160.846 304.661 160.81 304.66H154.02C153.951 304.659 153.884 304.676 153.824 304.709C153.764 304.742 153.713 304.791 153.677 304.85C153.641 304.909 153.62 304.977 153.617 305.047C153.614 305.117 153.629 305.187 153.66 305.25C155.453 308.797 156.58 310.947 157.04 311.7C164.18 323.42 172.987 333.783 183.46 342.79C191.233 349.477 199.623 355.96 208.63 362.24C208.665 362.264 208.705 362.277 208.747 362.28C208.789 362.282 208.83 362.273 208.867 362.254C208.904 362.234 208.935 362.205 208.957 362.169C208.979 362.133 208.99 362.092 208.99 362.05V324.23C208.99 324.063 208.924 323.903 208.805 323.785C208.687 323.666 208.527 323.6 208.36 323.6H191.33C191.274 323.6 191.22 323.583 191.174 323.551C191.128 323.518 191.094 323.473 191.075 323.42C191.057 323.367 191.055 323.31 191.07 323.257C191.085 323.203 191.117 323.155 191.16 323.12ZM214.85 323.62C214.765 323.62 214.684 323.654 214.624 323.714C214.564 323.774 214.53 323.855 214.53 323.94V355.58C214.53 355.645 214.55 355.708 214.587 355.761C214.625 355.815 214.677 355.855 214.738 355.878C214.798 355.901 214.865 355.905 214.928 355.889C214.99 355.873 215.047 355.839 215.09 355.79L242.66 324.15C242.7 324.104 242.726 324.047 242.735 323.986C242.744 323.926 242.735 323.864 242.71 323.808C242.685 323.752 242.644 323.705 242.593 323.671C242.541 323.638 242.481 323.62 242.42 323.62H214.85ZM285.81 323.96C285.81 323.872 285.775 323.789 285.713 323.727C285.651 323.665 285.568 323.63 285.48 323.63H257.47C257.406 323.629 257.343 323.647 257.289 323.681C257.235 323.716 257.192 323.765 257.166 323.823C257.139 323.882 257.13 323.947 257.14 324.01C257.149 324.073 257.177 324.132 257.22 324.18L285.23 356.18C285.274 356.231 285.333 356.268 285.399 356.284C285.465 356.301 285.534 356.297 285.597 356.273C285.66 356.249 285.715 356.206 285.753 356.15C285.791 356.094 285.811 356.028 285.81 355.96V323.96ZM249.99 384.89C250.003 384.89 250.037 384.89 250.09 384.89C250.161 384.894 250.223 384.887 250.27 384.87C262.197 379.457 274.043 373.077 285.81 365.73C285.842 365.71 285.869 365.684 285.89 365.652C285.91 365.621 285.924 365.586 285.93 365.549C285.935 365.512 285.933 365.474 285.923 365.438C285.912 365.402 285.894 365.368 285.87 365.34C276.863 355.267 265.16 341.903 250.76 325.25C250.48 324.93 250.233 324.767 250.02 324.76C249.813 324.76 249.57 324.923 249.29 325.25C234.87 341.89 223.15 355.24 214.13 365.3C214.106 365.328 214.088 365.362 214.077 365.398C214.067 365.434 214.065 365.472 214.07 365.509C214.076 365.546 214.09 365.581 214.11 365.612C214.131 365.644 214.158 365.67 214.19 365.69C225.95 373.05 237.79 379.443 249.71 384.87C249.759 384.888 249.825 384.895 249.9 384.89C249.947 384.89 249.977 384.89 249.99 384.89Z" fill="#0F1C2B"/>
<path d="M231.71 366.3L249.49 338.1C249.522 338.048 249.567 338.006 249.621 337.976C249.674 337.947 249.734 337.931 249.795 337.931C249.856 337.931 249.916 337.947 249.969 337.976C250.023 338.006 250.068 338.048 250.1 338.1L267.98 366.24C268.014 366.294 268.032 366.356 268.034 366.42C268.036 366.484 268.021 366.547 267.99 366.602C267.96 366.658 267.915 366.705 267.86 366.738C267.806 366.771 267.744 366.789 267.68 366.79L232.02 366.85C231.955 366.851 231.892 366.834 231.836 366.802C231.78 366.77 231.734 366.723 231.702 366.667C231.67 366.611 231.654 366.547 231.656 366.482C231.657 366.418 231.676 366.355 231.71 366.3Z" fill="#93192A"/>
</svg>