<svg xmlns="http://www.w3.org/2000/svg" style="display: none;">
  <symbol id="active-user" viewBox="0 0 512 512">
    <title>active-user</title>
    <path d="M360.1 467.2H47.4C20.3 467.2 1 440.8 9.3 415l32.9-102.8c10.6-33 46.7-50.1 78.9-37.6 21.4 8.3 48.9 14.8 82.6 14.8s61.2-6.5 82.6-14.8c1.2-.5 2.5-.9 3.8-1.3v2.5c0 59.1 43.9 108.1 100.8 116.1l7.4 23.1c8.2 25.8-11 52.2-38.2 52.2z" fill="#93192a" opacity="1" data-original="#000000" class=""/>
    <circle cx="203.8" cy="147.9" r="103.1" fill="#93192a" opacity="1" data-original="#000000" class=""/>
    <path d="M407.3 178.5c-53.7 0-97.3 43.6-97.3 97.3s43.6 97.3 97.3 97.3 97.3-43.5 97.3-97.3-43.5-97.3-97.3-97.3zm60 76.5-66.6 66.6c-6.9 6.9-18.1 6.9-25 0l-28.4-28.4c-6.9-6.9-6.9-18.1 0-25 6.9-6.9 18.1-6.9 25 0l15.9 15.9 54-54.1c6.9-6.9 18.1-6.9 25 0 7 6.9 7 18.1.1 25z" fill="#93192a" opacity="1" data-original="#000000" class=""/>
  </symbol>
  <symbol id="send" viewBox="0 0 32 32">
    <title>send</title>
    <path d="m11.885 19.405 5.907-5.908a1 1 0 0 1 1.414 1.415l-5.907 5.907 4.637 8.759a2 2 0 0 0 3.665-.304l7.821-23.462a1.999 1.999 0 0 0-2.53-2.53L3.429 11.103a2.001 2.001 0 0 0-.303 3.665z" fill="#93192a" opacity="1" data-original="#000000"/>
  </symbol>
  <symbol id="strategy-board" viewBox="0 0 512 512">
    <title>strategy-board</title>
    <path d="M270.846 392.066V499.5a5 5 0 0 1-5 5h-19.692a5 5 0 0 1-5-5V391.848M227.671 392.066l-47.94 109.44a5 5 0 0 1-4.58 2.994h-20.72c-3.607 0-6.027-3.703-4.58-7.006l46.277-105.646M284.234 391.848l48.035 109.658a5 5 0 0 0 4.58 2.994h20.72c3.607 0 6.027-3.703 4.58-7.006l-46.669-106.54M129.92 37.19h335.7c2.77 0 5 2.24 5 5v20.6c0 2.76-2.23 5-5 5H46.38c-2.77 0-5-2.24-5-5v-20.6c0-2.76 2.23-5 5-5h48.54M61.3 249.79V70.16M61.3 326.82v-42.03M450.7 327.44V155.39M450.7 120.39v-49.9M428.62 360.17h37c2.77 0 5-2.24 5-5v-20.6c0-2.76-2.23-5-5-5H46.38c-2.77 0-5 2.24-5 5v20.6c0 2.76 2.23 5 5 5h347.24M208.77 33.991V12.5a5 5 0 0 1 5-5h84.46a5 5 0 0 1 5 5v21.656M359.434 362.284v22.574a5 5 0 0 1-5 5H157.566a5 5 0 0 1-5-5v-22.959M121.398 109.826l34.053 34.053M121.398 143.879l34.053-34.053M247.641 252.153l34.053 34.053M247.641 286.206l34.053-34.053" style="stroke-width:15;stroke-linecap:round;stroke-linejoin:round;stroke-miterlimit:10;" fill="none" stroke="#93192a" stroke-width="15" stroke-linecap="round" stroke-linejoin="round" stroke-miterlimit="10" data-original="#000000" opacity="1"/>
    <circle cx="138.424" cy="269.18" r="20.553" style="stroke-width:15;stroke-linecap:round;stroke-linejoin:round;stroke-miterlimit:10;" fill="none" stroke="#93192a" stroke-width="15" stroke-linecap="round" stroke-linejoin="round" stroke-miterlimit="10" data-original="#000000" opacity="1"/>
    <circle cx="215.049" cy="177.087" r="20.553" style="stroke-width:15;stroke-linecap:round;stroke-linejoin:round;stroke-miterlimit:10;" fill="none" stroke="#93192a" stroke-width="15" stroke-linecap="round" stroke-linejoin="round" stroke-miterlimit="10" data-original="#000000" opacity="1"/>
    <circle cx="373.071" cy="269.18" r="20.553" style="stroke-width:15;stroke-linecap:round;stroke-linejoin:round;stroke-miterlimit:10;" fill="none" stroke="#93192a" stroke-width="15" stroke-linecap="round" stroke-linejoin="round" stroke-miterlimit="10" data-original="#000000" opacity="1"/>
    <circle cx="373.071" cy="126.852" r="20.553" style="stroke-width:15;stroke-linecap:round;stroke-linejoin:round;stroke-miterlimit:10;" fill="none" stroke="#93192a" stroke-width="15" stroke-linecap="round" stroke-linejoin="round" stroke-miterlimit="10" data-original="#000000" opacity="1"/>
    <path d="M138.424 224.725h0c-1.408-17.972 9.949-34.48 27.237-39.589l2.384-.705M248.303 144.798l.815-1.269c15.061-23.44 44.448-33.175 70.524-23.364h0M345.285 164.429h0c-15.026 19.317-15.026 46.368 0 65.685h0" style="stroke-width:15;stroke-linecap:round;stroke-linejoin:round;stroke-miterlimit:10;" fill="none" stroke="#93192a" stroke-width="15" stroke-linecap="round" stroke-linejoin="round" stroke-miterlimit="10" data-original="#000000" opacity="1"/>
  </symbol>
  <symbol id="board-game" viewBox="0 0 682.667 682.667">
    <title>board-game</title>
    <defs>
    <clipPath id="a">
      <path d="M0 512h512V0H0Z" fill="#93192a" opacity="1" data-original="#000000"/>
    </clipPath>
  </defs>
    <g clip-path="url(#a)" transform="matrix(1.33333 0 0 -1.33333 0 682.667)">
      <path d="M0 0v497" style="stroke-width:15;stroke-linecap:round;stroke-linejoin:round;stroke-miterlimit:10;stroke-dasharray:none;stroke-opacity:1" transform="translate(405.1 7.5)" fill="none" stroke="#93192a" stroke-width="15" stroke-linecap="round" stroke-linejoin="round" stroke-miterlimit="10" stroke-dasharray="none" stroke-opacity="" data-original="#000000" opacity="1"/>
      <path d="M0 0v-77.42c0-25.34-20.55-45.89-45.89-45.89h-405.22c-25.34 0-45.89 20.55-45.89 45.89V327.8c0 25.34 20.55 45.89 45.89 45.89h405.22C-20.55 373.69 0 353.14 0 327.8V30" style="stroke-width:15;stroke-linecap:round;stroke-linejoin:round;stroke-miterlimit:10;stroke-dasharray:none;stroke-opacity:1" transform="translate(504.5 130.81)" fill="none" stroke="#93192a" stroke-width="15" stroke-linecap="round" stroke-linejoin="round" stroke-miterlimit="10" stroke-dasharray="none" stroke-opacity="" data-original="#000000" opacity="1"/>
      <path d="M106.9 405.1h298.2V106.9H106.9Z" style="stroke-width:15;stroke-linecap:round;stroke-linejoin:round;stroke-miterlimit:10;stroke-dasharray:none;stroke-opacity:1" fill="none" stroke="#93192a" stroke-width="15" stroke-linecap="round" stroke-linejoin="round" stroke-miterlimit="10" stroke-dasharray="none" stroke-opacity="" data-original="#000000" opacity="1"/>
      <path d="M0 0v99.4" style="stroke-width:15;stroke-linecap:round;stroke-linejoin:round;stroke-miterlimit:10;stroke-dasharray:none;stroke-opacity:1" transform="translate(206.3 405.1)" fill="none" stroke="#93192a" stroke-width="15" stroke-linecap="round" stroke-linejoin="round" stroke-miterlimit="10" stroke-dasharray="none" stroke-opacity="" data-original="#000000" opacity="1"/>
      <path d="M0 0v99.4" style="stroke-width:15;stroke-linecap:round;stroke-linejoin:round;stroke-miterlimit:10;stroke-dasharray:none;stroke-opacity:1" transform="translate(206.3 7.5)" fill="none" stroke="#93192a" stroke-width="15" stroke-linecap="round" stroke-linejoin="round" stroke-miterlimit="10" stroke-dasharray="none" stroke-opacity="" data-original="#000000" opacity="1"/>
      <path d="M0 0v99.4" style="stroke-width:15;stroke-linecap:round;stroke-linejoin:round;stroke-miterlimit:10;stroke-dasharray:none;stroke-opacity:1" transform="translate(305.7 405.1)" fill="none" stroke="#93192a" stroke-width="15" stroke-linecap="round" stroke-linejoin="round" stroke-miterlimit="10" stroke-dasharray="none" stroke-opacity="" data-original="#000000" opacity="1"/>
      <path d="M0 0v99.4" style="stroke-width:15;stroke-linecap:round;stroke-linejoin:round;stroke-miterlimit:10;stroke-dasharray:none;stroke-opacity:1" transform="translate(305.7 7.5)" fill="none" stroke="#93192a" stroke-width="15" stroke-linecap="round" stroke-linejoin="round" stroke-miterlimit="10" stroke-dasharray="none" stroke-opacity="" data-original="#000000" opacity="1"/>
      <path d="M0 0v497" style="stroke-width:15;stroke-linecap:round;stroke-linejoin:round;stroke-miterlimit:10;stroke-dasharray:none;stroke-opacity:1" transform="translate(106.9 7.5)" fill="none" stroke="#93192a" stroke-width="15" stroke-linecap="round" stroke-linejoin="round" stroke-miterlimit="10" stroke-dasharray="none" stroke-opacity="" data-original="#000000" opacity="1"/> <path d="M0 0h497" style="stroke-width:15;stroke-linecap:round;stroke-linejoin:round;stroke-miterlimit:10;stroke-dasharray:none;stroke-opacity:1" transform="translate(7.5 106.9)" fill="none" stroke="#93192a" stroke-width="15" stroke-linecap="round" stroke-linejoin="round" stroke-miterlimit="10" stroke-dasharray="none" stroke-opacity="" data-original="#000000" opacity="1"/> <path d="M0 0h-99.4" style="stroke-width:15;stroke-linecap:round;stroke-linejoin:round;stroke-miterlimit:10;stroke-dasharray:none;stroke-opacity:1" transform="translate(504.5 305.7)" fill="none" stroke="#93192a" stroke-width="15" stroke-linecap="round" stroke-linejoin="round" stroke-miterlimit="10" stroke-dasharray="none" stroke-opacity="" data-original="#000000" opacity="1"/> <path d="M0 0h-37.99" style="stroke-width:15;stroke-linecap:round;stroke-linejoin:round;stroke-miterlimit:10;stroke-dasharray:none;stroke-opacity:1" transform="translate(45.49 305.7)" fill="none" stroke="#93192a" stroke-width="15" stroke-linecap="round" stroke-linejoin="round" stroke-miterlimit="10" stroke-dasharray="none" stroke-opacity="" data-original="#000000" opacity="1"/> <path d="M0 0h-31.41" style="stroke-width:15;stroke-linecap:round;stroke-linejoin:round;stroke-miterlimit:10;stroke-dasharray:none;stroke-opacity:1" transform="translate(106.9 305.7)" fill="none" stroke="#93192a" stroke-width="15" stroke-linecap="round" stroke-linejoin="round" stroke-miterlimit="10" stroke-dasharray="none" stroke-opacity="" data-original="#000000" opacity="1"/> <path d="M0 0h-99.4" style="stroke-width:15;stroke-linecap:round;stroke-linejoin:round;stroke-miterlimit:10;stroke-dasharray:none;stroke-opacity:1" transform="translate(504.5 206.3)" fill="none" stroke="#93192a" stroke-width="15" stroke-linecap="round" stroke-linejoin="round" stroke-miterlimit="10" stroke-dasharray="none" stroke-opacity="" data-original="#000000" opacity="1"/> <path d="M0 0h-99.4" style="stroke-width:15;stroke-linecap:round;stroke-linejoin:round;stroke-miterlimit:10;stroke-dasharray:none;stroke-opacity:1" transform="translate(106.9 206.3)" fill="none" stroke="#93192a" stroke-width="15" stroke-linecap="round" stroke-linejoin="round" stroke-miterlimit="10" stroke-dasharray="none" stroke-opacity="" data-original="#000000" opacity="1"/> <path d="M0 0h497" style="stroke-width:15;stroke-linecap:round;stroke-linejoin:round;stroke-miterlimit:10;stroke-dasharray:none;stroke-opacity:1" transform="translate(7.5 405.1)" fill="none" stroke="#93192a" stroke-width="15" stroke-linecap="round" stroke-linejoin="round" stroke-miterlimit="10" stroke-dasharray="none" stroke-opacity="" data-original="#000000" opacity="1"/> <path d="M0 0h-50.889c-13.496 0-24.437 10.941-24.437 24.437v50.889c0 13.496 10.941 24.436 24.437 24.436H0c13.496 0 24.437-10.94 24.437-24.436V24.437C24.437 10.941 13.496 0 0 0Z" style="stroke-width:15;stroke-linecap:round;stroke-linejoin:round;stroke-miterlimit:10;stroke-dasharray:none;stroke-opacity:1" transform="translate(223.25 255.895)" fill="none" stroke="#93192a" stroke-width="15" stroke-linecap="round" stroke-linejoin="round" stroke-miterlimit="10" stroke-dasharray="none" stroke-opacity="" data-original="#000000" opacity="1"/> <path d="M0 0v.5" style="stroke-width:15;stroke-linecap:round;stroke-linejoin:round;stroke-miterlimit:10;stroke-dasharray:none;stroke-opacity:1" transform="translate(197.805 305.777)" fill="none" stroke="#93192a" stroke-width="15" stroke-linecap="round" stroke-linejoin="round" stroke-miterlimit="10" stroke-dasharray="none" stroke-opacity="" data-original="#000000" opacity="1"/> <path d="M0 0v.5" style="stroke-width:15;stroke-linecap:round;stroke-linejoin:round;stroke-miterlimit:10;stroke-dasharray:none;stroke-opacity:1" transform="translate(221.042 329.013)" fill="none" stroke="#93192a" stroke-width="15" stroke-linecap="round" stroke-linejoin="round" stroke-miterlimit="10" stroke-dasharray="none" stroke-opacity="" data-original="#000000" opacity="1"/> <path d="M0 0v.5" style="stroke-width:15;stroke-linecap:round;stroke-linejoin:round;stroke-miterlimit:10;stroke-dasharray:none;stroke-opacity:1" transform="translate(174.569 282.54)" fill="none" stroke="#93192a" stroke-width="15" stroke-linecap="round" stroke-linejoin="round" stroke-miterlimit="10" stroke-dasharray="none" stroke-opacity="" data-original="#000000" opacity="1"/> <path d="M0 0h-50.889c-13.496 0-24.437 10.941-24.437 24.437v50.889c0 13.496 10.941 24.437 24.437 24.437H0c13.496 0 24.437-10.941 24.437-24.437V24.437C24.437 10.941 13.496 0 0 0Z" style="stroke-width:15;stroke-linecap:round;stroke-linejoin:round;stroke-miterlimit:10;stroke-dasharray:none;stroke-opacity:1" transform="translate(339.64 156.346)" fill="none" stroke="#93192a" stroke-width="15" stroke-linecap="round" stroke-linejoin="round" stroke-miterlimit="10" stroke-dasharray="none" stroke-opacity="" data-original="#000000" opacity="1"/> <path d="M0 0v.5" style="stroke-width:15;stroke-linecap:round;stroke-linejoin:round;stroke-miterlimit:10;stroke-dasharray:none;stroke-opacity:1" transform="translate(314.195 206.227)" fill="none" stroke="#93192a" stroke-width="15" stroke-linecap="round" stroke-linejoin="round" stroke-miterlimit="10" stroke-dasharray="none" stroke-opacity="" data-original="#000000" opacity="1"/> <path d="M0 0v.5" style="stroke-width:15;stroke-linecap:round;stroke-linejoin:round;stroke-miterlimit:10;stroke-dasharray:none;stroke-opacity:1" transform="translate(337.431 229.464)" fill="none" stroke="#93192a" stroke-width="15" stroke-linecap="round" stroke-linejoin="round" stroke-miterlimit="10" stroke-dasharray="none" stroke-opacity="" data-original="#000000" opacity="1"/> <path d="M0 0v.5" style="stroke-width:15;stroke-linecap:round;stroke-linejoin:round;stroke-miterlimit:10;stroke-dasharray:none;stroke-opacity:1" transform="translate(290.958 182.99)" fill="none" stroke="#93192a" stroke-width="15" stroke-linecap="round" stroke-linejoin="round" stroke-miterlimit="10" stroke-dasharray="none" stroke-opacity="" data-original="#000000" opacity="1"/> <path d="M0 0h.5" style="stroke-width:15;stroke-linecap:round;stroke-linejoin:round;stroke-miterlimit:10;stroke-dasharray:none;stroke-opacity:1" transform="translate(337.181 183.241)" fill="none" stroke="#93192a" stroke-width="15" stroke-linecap="round" stroke-linejoin="round" stroke-miterlimit="10" stroke-dasharray="none" stroke-opacity="" data-original="#000000" opacity="1"/> <path d="M0 0h.5" style="stroke-width:15;stroke-linecap:round;stroke-linejoin:round;stroke-miterlimit:10;stroke-dasharray:none;stroke-opacity:1" transform="translate(290.708 229.714)" fill="none" stroke="#93192a" stroke-width="15" stroke-linecap="round" stroke-linejoin="round" stroke-miterlimit="10" stroke-dasharray="none" stroke-opacity="" data-original="#000000" opacity="1"/> <path d="m0 0-31.979-31.979" style="stroke-width:15;stroke-linecap:round;stroke-linejoin:round;stroke-miterlimit:10;stroke-dasharray:none;stroke-opacity:1" transform="translate(471.646 467.846)" fill="none" stroke="#93192a" stroke-width="15" stroke-linecap="round" stroke-linejoin="round" stroke-miterlimit="10" stroke-dasharray="none" stroke-opacity="" data-original="#000000" opacity="1"/> <path d="M0 0v-31.924h31.924" style="stroke-width:15;stroke-linecap:round;stroke-linejoin:round;stroke-miterlimit:10;stroke-dasharray:none;stroke-opacity:1" transform="translate(438.252 466.377)" fill="none" stroke="#93192a" stroke-width="15" stroke-linecap="round" stroke-linejoin="round" stroke-miterlimit="10" stroke-dasharray="none" stroke-opacity="" data-original="#000000" opacity="1"/> <path d="M0 0h30.594" style="stroke-width:15;stroke-linecap:round;stroke-linejoin:round;stroke-miterlimit:10;stroke-dasharray:none;stroke-opacity:1" transform="translate(40.533 465.046)" fill="none" stroke="#93192a" stroke-width="15" stroke-linecap="round" stroke-linejoin="round" stroke-miterlimit="10" stroke-dasharray="none" stroke-opacity="" data-original="#000000" opacity="1"/> <path d="M0 0h30.594" style="stroke-width:15;stroke-linecap:round;stroke-linejoin:round;stroke-miterlimit:10;stroke-dasharray:none;stroke-opacity:1" transform="translate(40.533 443.764)" fill="none" stroke="#93192a" stroke-width="15" stroke-linecap="round" stroke-linejoin="round" stroke-miterlimit="10" stroke-dasharray="none" stroke-opacity="" data-original="#000000" opacity="1"/> <path d="M0 0c0 11.019-8.933 19.952-19.953 19.952-11.019 0-19.952-8.933-19.952-19.952 0-11.02 8.933-19.953 19.952-19.953C-8.933-19.953 0-11.02 0 0Z" style="stroke-width:15;stroke-linecap:round;stroke-linejoin:round;stroke-miterlimit:10;stroke-dasharray:none;stroke-opacity:1" transform="translate(472.176 58.686)" fill="none" stroke="#93192a" stroke-width="15" stroke-linecap="round" stroke-linejoin="round" stroke-miterlimit="10" stroke-dasharray="none" stroke-opacity="" data-original="#000000" opacity="1"/> <path d="M0 0v-50.783" style="stroke-width:15;stroke-linecap:round;stroke-linejoin:round;stroke-miterlimit:10;stroke-dasharray:none;stroke-opacity:1" transform="translate(47.617 84.412)" fill="none" stroke="#93192a" stroke-width="15" stroke-linecap="round" stroke-linejoin="round" stroke-miterlimit="10" stroke-dasharray="none" stroke-opacity="" data-original="#000000" opacity="1"/> <path d="M0 0v-50.783" style="stroke-width:15;stroke-linecap:round;stroke-linejoin:round;stroke-miterlimit:10;stroke-dasharray:none;stroke-opacity:1" transform="translate(70.466 84.412)" fill="none" stroke="#93192a" stroke-width="15" stroke-linecap="round" stroke-linejoin="round" stroke-miterlimit="10" stroke-dasharray="none" stroke-opacity="" data-original="#000000" opacity="1"/> <path d="M0 0h-50.783" style="stroke-width:15;stroke-linecap:round;stroke-linejoin:round;stroke-miterlimit:10;stroke-dasharray:none;stroke-opacity:1" transform="translate(84.433 70.445)" fill="none" stroke="#93192a" stroke-width="15" stroke-linecap="round" stroke-linejoin="round" stroke-miterlimit="10" stroke-dasharray="none" stroke-opacity="" data-original="#000000" opacity="1"/> <path d="M0 0h-50.783" style="stroke-width:15;stroke-linecap:round;stroke-linejoin:round;stroke-miterlimit:10;stroke-dasharray:none;stroke-opacity:1" transform="translate(84.433 47.596)" fill="none" stroke="#93192a" stroke-width="15" stroke-linecap="round" stroke-linejoin="round" stroke-miterlimit="10" stroke-dasharray="none" stroke-opacity="" data-original="#000000" opacity="1"/> </g></symbol><symbol id="rules" viewBox="0 0 682.667 682.667"><title>rules</title><defs> <clipPath id="a"> <path d="M0 512h512V0H0Z" fill="#93192a" opacity="1" data-original="#000000"/> </clipPath> </defs><g clip-path="url(#a)" transform="matrix(1.33333 0 0 -1.33333 0 682.667)"> <path d="M0 0v-20c0-22.092-17.909-40-40-40h-188.5c-11.046 0-20 8.954-20 20v29" style="stroke-width:15;stroke-linecap:round;stroke-linejoin:round;stroke-miterlimit:10;stroke-dasharray:none;stroke-opacity:1" transform="translate(504.5 115.5)" fill="none" stroke="#93192a" stroke-width="15" stroke-linecap="round" stroke-linejoin="round" stroke-miterlimit="10" stroke-dasharray="none" stroke-opacity="" data-original="#000000" opacity="1"/> <path d="M0 0h13.5c8.284 0 15-6.716 15-15v-246" style="stroke-width:15;stroke-linecap:round;stroke-linejoin:round;stroke-miterlimit:10;stroke-dasharray:none;stroke-opacity:1" transform="translate(476 411.5)" fill="none" stroke="#93192a" stroke-width="15" stroke-linecap="round" stroke-linejoin="round" stroke-miterlimit="10" stroke-dasharray="none" stroke-opacity="" data-original="#000000" opacity="1"/> <path d="M0 0h-13.5c-8.284 0-15-6.716-15-15v-301c0-22.091 17.909-40 40-40H200c11.046 0 20 8.954 20 20v27.5" style="stroke-width:15;stroke-linecap:round;stroke-linejoin:round;stroke-miterlimit:10;stroke-dasharray:none;stroke-opacity:1" transform="translate(36 411.5)" fill="none" stroke="#93192a" stroke-width="15" stroke-linecap="round" stroke-linejoin="round" stroke-miterlimit="10" stroke-dasharray="none" stroke-opacity="" data-original="#000000" opacity="1"/> <path d="M0 0h68.5c8.284 0 15-6.716 15-15v-326.072c0-8.284-6.716-15-15-15H-120c-8.284 0-15 6.716-15 15V-15c0 8.284 6.716 15 15 15h29.25" style="stroke-width:15;stroke-linecap:round;stroke-linejoin:round;stroke-miterlimit:10;stroke-dasharray:none;stroke-opacity:1" transform="translate(172.5 441.5)" fill="none" stroke="#93192a" stroke-width="15" stroke-linecap="round" stroke-linejoin="round" stroke-miterlimit="10" stroke-dasharray="none" stroke-opacity="" data-original="#000000" opacity="1"/> <path d="M0 0c0 8.284 6.716 15 15 15h188.5c8.284 0 15-6.716 15-15v-326.072c0-8.284-6.716-15-15-15H15c-8.284 0-15 6.716-15 15" style="stroke-width:15;stroke-linecap:round;stroke-linejoin:round;stroke-miterlimit:10;stroke-dasharray:none;stroke-opacity:1" transform="translate(256 426.5)" fill="none" stroke="#93192a" stroke-width="15" stroke-linecap="round" stroke-linejoin="round" stroke-miterlimit="10" stroke-dasharray="none" stroke-opacity="" data-original="#000000" opacity="1"/> <path d="m0 0-15.925 13.898a5 5 0 0 1-6.575 0L-38.425 0c-3.234-2.823-8.287-.526-8.287 3.767v78a5 5 0 0 0 5 5h45a5 5 0 0 0 5-5v-78C8.288-.526 3.234-2.823 0 0Z" style="stroke-width:15;stroke-linecap:round;stroke-linejoin:round;stroke-miterlimit:10;stroke-dasharray:none;stroke-opacity:1" transform="translate(129.212 369.733)" fill="none" stroke="#93192a" stroke-width="15" stroke-linecap="round" stroke-linejoin="round" stroke-miterlimit="10" stroke-dasharray="none" stroke-opacity="" data-original="#000000" opacity="1"/> <path d="m0 0 11.314 11.314c5.858 5.858 5.858 15.355 0 21.213v0c-5.858 5.858-15.356 5.858-21.214 0l-11.313-11.314c-3.905-3.905-10.237-3.905-14.142 0l-12.021 12.021c-5.858 5.858-15.356 5.858-21.213 0v0c-5.858-5.858-5.858-15.355 0-21.213L-56.569 0c3.906-3.905 3.906-10.237 0-14.142l-12.02-12.021c-5.858-5.858-5.858-15.355 0-21.213v0c5.857-5.858 15.355-5.858 21.213 0l12.021 12.021c3.905 3.905 10.237 3.905 14.142 0L-9.9-46.669c5.858-5.858 15.356-5.858 21.214 0v0c5.858 5.858 5.858 15.355 0 21.213L0-14.142C-3.905-10.237-3.905-3.905 0 0Z" style="stroke-width:15;stroke-linecap:round;stroke-linejoin:round;stroke-miterlimit:10;stroke-dasharray:none;stroke-opacity:1" transform="translate(395.638 303.071)" fill="none" stroke="#93192a" stroke-width="15" stroke-linecap="round" stroke-linejoin="round" stroke-miterlimit="10" stroke-dasharray="none" stroke-opacity="" data-original="#000000" opacity="1"/> <path d="m0 0 16.263-16.263a5 5 0 0 1 7.072 0l45.961 45.961c5.858 5.858 15.356 5.858 21.214 0v0c5.858-5.857 5.858-15.355 0-21.213L30.406-51.619c-5.858-5.858-15.356-5.858-21.214 0l-30.405 30.406c-5.858 5.858-5.858 15.355 0 21.213v0C-15.355 5.858-5.858 5.858 0 0Z" style="stroke-width:15;stroke-linecap:round;stroke-linejoin:round;stroke-miterlimit:10;stroke-dasharray:none;stroke-opacity:1" transform="translate(112.352 306.96)" fill="none" stroke="#93192a" stroke-width="15" stroke-linecap="round" stroke-linejoin="round" stroke-miterlimit="10" stroke-dasharray="none" stroke-opacity="" data-original="#000000" opacity="1"/> <path d="M0 0h23" style="stroke-width:15;stroke-linecap:round;stroke-linejoin:round;stroke-miterlimit:10;stroke-dasharray:none;stroke-opacity:1" transform="translate(245 399.5)" fill="none" stroke="#93192a" stroke-width="15" stroke-linecap="round" stroke-linejoin="round" stroke-miterlimit="10" stroke-dasharray="none" stroke-opacity="" data-original="#000000" opacity="1"/> <path d="M0 0h23" style="stroke-width:15;stroke-linecap:round;stroke-linejoin:round;stroke-miterlimit:10;stroke-dasharray:none;stroke-opacity:1" transform="translate(244 345.5)" fill="none" stroke="#93192a" stroke-width="15" stroke-linecap="round" stroke-linejoin="round" stroke-miterlimit="10" stroke-dasharray="none" stroke-opacity="" data-original="#000000" opacity="1"/> <path d="M0 0h23" style="stroke-width:15;stroke-linecap:round;stroke-linejoin:round;stroke-miterlimit:10;stroke-dasharray:none;stroke-opacity:1" transform="translate(244 290.5)" fill="none" stroke="#93192a" stroke-width="15" stroke-linecap="round" stroke-linejoin="round" stroke-miterlimit="10" stroke-dasharray="none" stroke-opacity="" data-original="#000000" opacity="1"/> <path d="M0 0h23" style="stroke-width:15;stroke-linecap:round;stroke-linejoin:round;stroke-miterlimit:10;stroke-dasharray:none;stroke-opacity:1" transform="translate(244 235.5)" fill="none" stroke="#93192a" stroke-width="15" stroke-linecap="round" stroke-linejoin="round" stroke-miterlimit="10" stroke-dasharray="none" stroke-opacity="" data-original="#000000" opacity="1"/> <path d="M0 0h23" style="stroke-width:15;stroke-linecap:round;stroke-linejoin:round;stroke-miterlimit:10;stroke-dasharray:none;stroke-opacity:1" transform="translate(244 180.5)" fill="none" stroke="#93192a" stroke-width="15" stroke-linecap="round" stroke-linejoin="round" stroke-miterlimit="10" stroke-dasharray="none" stroke-opacity="" data-original="#000000" opacity="1"/> <path d="M0 0h23" style="stroke-width:15;stroke-linecap:round;stroke-linejoin:round;stroke-miterlimit:10;stroke-dasharray:none;stroke-opacity:1" transform="translate(244 125.5)" fill="none" stroke="#93192a" stroke-width="15" stroke-linecap="round" stroke-linejoin="round" stroke-miterlimit="10" stroke-dasharray="none" stroke-opacity="" data-original="#000000" opacity="1"/> <path d="M0 0h100" style="stroke-width:15;stroke-linecap:round;stroke-linejoin:round;stroke-miterlimit:10;stroke-dasharray:none;stroke-opacity:1" transform="translate(97 210.5)" fill="none" stroke="#93192a" stroke-width="15" stroke-linecap="round" stroke-linejoin="round" stroke-miterlimit="10" stroke-dasharray="none" stroke-opacity="" data-original="#000000" opacity="1"/> <path d="M0 0h60" style="stroke-width:15;stroke-linecap:round;stroke-linejoin:round;stroke-miterlimit:10;stroke-dasharray:none;stroke-opacity:1" transform="translate(117 180.5)" fill="none" stroke="#93192a" stroke-width="15" stroke-linecap="round" stroke-linejoin="round" stroke-miterlimit="10" stroke-dasharray="none" stroke-opacity="" data-original="#000000" opacity="1"/> <path d="M0 0h100" style="stroke-width:15;stroke-linecap:round;stroke-linejoin:round;stroke-miterlimit:10;stroke-dasharray:none;stroke-opacity:1" transform="translate(317 210.5)" fill="none" stroke="#93192a" stroke-width="15" stroke-linecap="round" stroke-linejoin="round" stroke-miterlimit="10" stroke-dasharray="none" stroke-opacity="" data-original="#000000" opacity="1"/> <path d="M0 0h60" style="stroke-width:15;stroke-linecap:round;stroke-linejoin:round;stroke-miterlimit:10;stroke-dasharray:none;stroke-opacity:1" transform="translate(337 180.5)" fill="none" stroke="#93192a" stroke-width="15" stroke-linecap="round" stroke-linejoin="round" stroke-miterlimit="10" stroke-dasharray="none" stroke-opacity="" data-original="#000000" opacity="1"/> </g></symbol></svg>
