<svg id="Capa_1" enable-background="new 0 0 512 512" height="512" viewBox="0 0 512 512" width="512" xmlns="http://www.w3.org/2000/svg">
  <g>
    <path d="m437 377h-30v-30c0-8.284-6.716-15-15-15s-15 6.716-15 15v45c0 8.284 6.716 15 15 15h45c8.284 0 15-6.716 15-15s-6.716-15-15-15z" fill="#93192A"/>
    <path d="m195 120c-8.284 0-15 6.716-15 15v60c0 8.284 6.716 15 15 15s15-6.716 15-15v-60c0-8.284-6.716-15-15-15z" fill="#93192A"/>
    <circle cx="195" cy="255" r="15" fill="#93192A"/>
    <path d="m392 272c-6.326 0-12.538.496-18.602 1.444l-139.043-250.277c-7.939-14.29-23.019-23.167-39.355-23.167s-31.416 8.877-39.355 23.167l-150 270c-3.693 6.648-5.645 14.197-5.645 21.833 0 24.813 20.187 45 45 45h231.339c-2.823 10.192-4.339 20.922-4.339 32 0 66.168 53.832 120 120 120s120-53.832 120-120-53.832-120-120-120zm-347 58c-8.271 0-15-6.729-15-15 0-2.587.629-5.031 1.869-7.263l150-270c2.652-4.772 7.683-7.737 13.131-7.737s10.479 2.965 13.131 7.737l135.748 244.347c-22.741 9.995-41.816 26.84-54.586 47.917h-244.293zm347 152c-49.626 0-90-40.374-90-90s40.374-90 90-90 90 40.374 90 90-40.374 90-90 90z" fill="#93192A"/>
  </g>
</svg>

