<?xml version="1.0" encoding="iso-8859-1"?>
<!-- Generator: Adobe Illustrator 19.0.0, SVG Export Plug-In . SVG Version: 6.00 Build 0)  -->
<svg version="1.1" id="Capa_1" xmlns="http://www.w3.org/2000/svg" xmlns:xlink="http://www.w3.org/1999/xlink" x="0px" y="0px"
	 viewBox="0 0 512 512" style="enable-background:new 0 0 512 512;" xml:space="preserve">
<g>
	<g>
		<path d="M180.514,479.64L32.349,331.474L6.133,305.259C-5.226,364.185-0.692,425.582,19.38,483.372l2.384,6.863l6.864,2.385
			c37.021,12.858,75.37,19.379,113.979,19.38c21.523,0,43.057-2.062,64.141-6.126L180.514,479.64z" fill="#93192A"/>
	</g>
</g>
<g>
	<g>
		<path d="M473.053,216.353L295.648,38.948l-24.404-24.404C213.21,32.137,158.621,65.498,112.06,112.06
			c-46.562,46.562-79.922,101.15-97.515,159.185l24.403,24.404l177.404,177.404l24.404,24.404
			c58.035-17.593,112.623-50.953,159.185-97.515s79.922-101.15,97.515-159.185L473.053,216.353z M340.852,234.786L319.64,256
			l-21.213-21.213L277.213,256l21.213,21.213l-21.213,21.213L256,277.213l-21.213,21.213L256,319.64l-21.213,21.213l-21.213-21.214
			l-21.213,21.213l-21.213-21.213l21.213-21.213l-21.213-21.213L192.36,256l21.213,21.213L234.787,256l-21.213-21.213l21.213-21.213
			L256,234.787l21.213-21.213L256,192.36l21.213-21.213l21.213,21.213l21.213-21.213l21.213,21.213l-21.213,21.213L340.852,234.786z
			" fill="#93192A"/>
	</g>
</g>
<g>
	<g>
		<path d="M492.62,28.628l-2.384-6.863l-6.864-2.385C446.348,6.521,407.999,0,369.392,0c-21.52,0-43.056,2.062-64.14,6.127
			l26.234,26.234l148.165,148.165l26.215,26.215C517.226,147.815,512.692,86.418,492.62,28.628z" fill="#93192A"/>
	</g>
</g>
<g>
</g>
<g>
</g>
<g>
</g>
<g>
</g>
<g>
</g>
<g>
</g>
<g>
</g>
<g>
</g>
<g>
</g>
<g>
</g>
<g>
</g>
<g>
</g>
<g>
</g>
<g>
</g>
<g>
</g>
</svg>
